<svg width="164" height="40" viewBox="0 0 164 40" fill="none" xmlns="http://www.w3.org/2000/svg">
<path d="M148.435 39.9999C147.114 39.9999 145.865 39.8214 144.687 39.4645C143.509 39.1075 142.456 38.5899 141.527 37.9116C140.599 37.1976 139.85 36.323 139.278 35.2878C138.743 34.2168 138.475 32.9674 138.475 31.5394C138.475 29.7188 138.832 28.2373 139.546 27.095C140.26 25.9169 141.224 25.0245 142.438 24.4176C143.687 23.8107 145.097 23.4002 146.668 23.186C148.239 22.9361 149.881 22.8112 151.594 22.8112H157.11C157.11 21.5617 156.913 20.4908 156.521 19.5983C156.128 18.6702 155.503 17.9384 154.647 17.4029C153.826 16.8674 152.755 16.5997 151.434 16.5997C150.577 16.5997 149.774 16.7068 149.024 16.9209C148.31 17.0994 147.685 17.4029 147.15 17.8313C146.65 18.2239 146.293 18.7416 146.079 19.3841H139.386C139.635 17.9205 140.135 16.6711 140.885 15.6358C141.67 14.5649 142.616 13.6902 143.723 13.012C144.865 12.3337 146.115 11.8339 147.471 11.5126C148.828 11.1557 150.202 10.9772 151.594 10.9772C155.7 10.9772 158.681 12.1552 160.537 14.5113C162.429 16.8674 163.375 20.1695 163.375 24.4176V39.6251H157.592L157.431 35.9839C156.61 37.1976 155.628 38.0901 154.486 38.6612C153.344 39.2324 152.237 39.5894 151.166 39.7322C150.095 39.9107 149.185 39.9999 148.435 39.9999ZM149.72 34.6987C151.148 34.6987 152.416 34.431 153.522 33.8955C154.629 33.36 155.503 32.6104 156.146 31.6465C156.824 30.6827 157.163 29.576 157.163 28.3266V27.4163H152.023C151.166 27.4163 150.309 27.452 149.453 27.5234C148.631 27.5591 147.882 27.7019 147.204 27.9517C146.525 28.1659 145.972 28.5051 145.544 28.9691C145.151 29.4332 144.955 30.0936 144.955 30.9504C144.955 31.8072 145.169 32.5033 145.597 33.0388C146.061 33.5742 146.65 33.9848 147.364 34.2703C148.114 34.5559 148.899 34.6987 149.72 34.6987Z" fill="white"/>
<path d="M121.951 39.9999C119.024 39.9999 116.56 39.4109 114.561 38.2329C112.562 37.0191 111.045 35.3235 110.01 33.1459C108.974 30.9683 108.457 28.4515 108.457 25.5956C108.457 22.7398 108.992 20.223 110.063 18.0454C111.134 15.8321 112.705 14.1008 114.775 12.8513C116.846 11.6019 119.363 10.9772 122.326 10.9772C124.503 10.9772 126.431 11.352 128.109 12.1017C129.822 12.8513 131.197 13.958 132.232 15.4216C133.303 16.8496 133.981 18.6345 134.267 20.7764H127.841C127.413 19.4198 126.699 18.4381 125.699 17.8313C124.735 17.1887 123.575 16.8674 122.219 16.8674C120.398 16.8674 118.952 17.3136 117.881 18.2061C116.846 19.0629 116.096 20.1517 115.632 21.4725C115.168 22.7933 114.936 24.1677 114.936 25.5956C114.936 27.095 115.186 28.5051 115.686 29.8259C116.186 31.111 116.953 32.1463 117.988 32.9317C119.059 33.717 120.434 34.1097 122.111 34.1097C123.468 34.1097 124.682 33.8063 125.753 33.1994C126.859 32.5925 127.573 31.6108 127.895 30.2543H134.535C134.285 32.4319 133.553 34.2525 132.339 35.7161C131.161 37.1441 129.662 38.215 127.841 38.929C126.02 39.6429 124.057 39.9999 121.951 39.9999Z" fill="white"/>
<path d="M96.6638 39.6252V11.4056H103.197V39.6252H96.6638ZM99.9302 8.13922C98.6808 8.13922 97.6812 7.76439 96.9316 7.01473C96.1819 6.26506 95.8071 5.28335 95.8071 4.06961C95.8071 2.89156 96.1997 1.92771 96.9851 1.17804C97.7705 0.392681 98.7522 0 99.9302 0C101.073 0 102.054 0.374832 102.875 1.1245C103.696 1.87416 104.107 2.85587 104.107 4.06961C104.107 5.28335 103.714 6.26506 102.929 7.01473C102.144 7.76439 101.144 8.13922 99.9302 8.13922Z" fill="white"/>
<path d="M89.2655 39.6252C86.9808 39.6252 85.0888 39.3218 83.5894 38.7149C82.1258 38.108 81.0192 37.1263 80.2695 35.7698C79.5555 34.4133 79.1985 32.5926 79.1985 30.3079V17.1888H74.8612V11.4057H79.1985V3.53418H85.7313V11.4057H92.3177V17.1888H85.7313V29.4512C85.7313 30.8791 85.9812 31.9679 86.481 32.7176C86.9808 33.4672 88.1053 33.8421 89.8545 33.8421H92.1035V39.6252H89.2655Z" fill="white"/>
<path d="M58.8387 39.9999C55.9115 39.9999 53.4126 39.3931 51.3421 38.1793C49.3073 36.9656 47.7544 35.2878 46.6834 33.1459C45.6482 30.9683 45.1306 28.4515 45.1306 25.5956C45.1306 22.7398 45.666 20.223 46.737 18.0454C47.8436 15.8321 49.4144 14.1008 51.4492 12.8513C53.5197 11.6019 56.0007 10.9772 58.8923 10.9772C61.0342 10.9772 62.9084 11.3699 64.5148 12.1552C66.1212 12.9049 67.4599 13.9401 68.5309 15.261C69.6375 16.5818 70.4586 18.0811 70.994 19.759C71.5295 21.4368 71.7794 23.2039 71.7437 25.0602C71.708 25.4886 71.6723 25.9169 71.6366 26.3453C71.6009 26.738 71.5474 27.1664 71.476 27.6305H51.6634C51.7705 28.8799 52.0918 30.0222 52.6272 31.0575C53.1984 32.0927 53.9838 32.9138 54.9833 33.5207C56.0186 34.1276 57.3037 34.431 58.8387 34.431C59.7312 34.431 60.588 34.3239 61.409 34.1097C62.2301 33.8598 62.9441 33.5028 63.5509 33.0388C64.1935 32.5747 64.6219 31.9857 64.8361 31.2717H71.3689C70.9048 33.3065 70.048 34.9665 68.7986 36.2516C67.5492 37.5367 66.0498 38.4828 64.3006 39.0896C62.5871 39.6965 60.7665 39.9999 58.8387 39.9999ZM51.7705 22.7576H65.3715C65.3715 21.5796 65.1038 20.5086 64.5683 19.5448C64.0329 18.5809 63.2653 17.8313 62.2658 17.2958C61.3019 16.7246 60.1239 16.439 58.7317 16.439C57.2323 16.439 55.9829 16.7425 54.9833 17.3493C53.9838 17.9562 53.2162 18.7416 52.6808 19.7054C52.1453 20.6693 51.8419 21.6867 51.7705 22.7576Z" fill="white"/>
<path d="M14.0939 39.6251V11.4056H20.1983L20.5731 14.9932C21.3228 13.9937 22.1974 13.2083 23.197 12.6371C24.1965 12.066 25.2496 11.6554 26.3563 11.4056C27.4629 11.12 28.4982 10.9772 29.462 10.9772C32.1394 10.9772 34.2456 11.5662 35.7807 12.7442C37.3514 13.9223 38.458 15.493 39.1006 17.4564C39.7432 19.4198 40.0645 21.6153 40.0645 24.0428V39.6251H33.5317V25.1137C33.5317 24.0785 33.4603 23.0789 33.3175 22.1151C33.1747 21.1155 32.8891 20.223 32.4607 19.4377C32.068 18.6523 31.4969 18.0276 30.7472 17.5635C29.9975 17.0994 28.998 16.8674 27.7485 16.8674C26.2135 16.8674 24.9105 17.2779 23.8396 18.099C22.7686 18.9201 21.9654 20.0267 21.4299 21.4189C20.8944 22.7755 20.6267 24.3284 20.6267 26.0776V39.6251H14.0939Z" fill="white"/>
<path d="M0 39.6252V1.76709H6.69345V39.6252H0Z" fill="white"/>
</svg>
